<svg width="50" height="51" viewBox="0 0 50 51" fill="none" xmlns="http://www.w3.org/2000/svg">
<path d="M42.9701 5.80225H7.03259C6.16833 5.80225 5.47009 6.50049 5.47009 7.36475V43.3022C5.47009 44.1665 6.16833 44.8647 7.03259 44.8647H42.9701C43.8344 44.8647 44.5326 44.1665 44.5326 43.3022V7.36475C44.5326 6.50049 43.8344 5.80225 42.9701 5.80225ZM38.4584 17.2036H35.3383C32.892 17.2036 32.4183 18.3657 32.4183 20.0747V23.8394H38.2582L37.4965 29.7329H32.4183V44.8647H26.3295V29.7378H21.2367V23.8394H26.3295V19.4937C26.3295 14.4497 29.4105 11.7007 33.9125 11.7007C36.0707 11.7007 37.9213 11.8618 38.4633 11.9351V17.2036H38.4584Z" fill="white"/>
</svg>
