<svg width="231" height="42" viewBox="0 0 231 42" fill="none" xmlns="http://www.w3.org/2000/svg">
<mask id="mask0_86_2666" style="mask-type:luminance" maskUnits="userSpaceOnUse" x="0" y="0" width="231" height="42">
<path d="M230.289 0.952206H0V41.0478H230.289V0.952206Z" fill="white"/>
</mask>
<g mask="url(#mask0_86_2666)">
<mask id="mask1_86_2666" style="mask-type:luminance" maskUnits="userSpaceOnUse" x="0" y="0" width="231" height="42">
<path d="M230.289 0.952206H0V41.0478H230.289V0.952206Z" fill="white"/>
</mask>
<g mask="url(#mask1_86_2666)">
<path d="M95.4325 26.2547C95.4325 26.2547 95.2386 24.829 95.1538 24.1071C95.0703 23.3827 94.9894 22.6505 94.9034 21.9081C94.8186 21.167 94.7389 20.4143 94.6567 19.6487C94.581 18.8832 94.4949 18.0868 94.3986 17.2674L94.387 17.1492H94.0299L93.9952 17.216C93.7833 17.6116 93.556 18.0342 93.3132 18.4902C93.0704 18.9436 92.8251 19.406 92.5759 19.88C92.3293 20.3475 92.084 20.815 91.8489 21.2736C91.6061 21.7309 91.3827 22.1573 91.1733 22.5465C90.9626 22.9434 90.7777 23.294 90.6171 23.5972C90.5208 23.7821 90.436 23.9465 90.3666 24.0801C89.763 22.9498 89.1824 21.8452 88.6249 20.7675C88.0341 19.6205 87.4496 18.4375 86.8704 17.2237L86.837 17.1492H86.4221L86.4144 17.2674C86.3463 17.9494 86.2641 18.6713 86.1742 19.4291C86.0817 20.1857 85.9789 20.955 85.8698 21.7309C85.7632 22.5105 85.6488 23.2863 85.5307 24.057C85.4125 24.8264 85.1916 26.2496 85.1916 26.2521L85.1685 26.4024H86.327L86.3296 26.2778C86.3296 26.2778 86.3514 25.4969 86.3925 24.9638C86.4336 24.4282 86.485 23.8631 86.5428 23.2606C86.6032 22.6557 86.6687 22.0443 86.7381 21.4252C86.7907 20.955 86.8434 20.5106 86.8871 20.0932C87.3841 21.104 87.8787 22.0918 88.3719 23.0616C88.9204 24.1443 89.447 25.2246 89.9479 26.3022L89.9813 26.3754H90.2652L90.2999 26.2984C90.8021 25.1385 91.3313 24.021 91.8862 22.9601C92.3884 21.9993 92.8983 21.0372 93.4198 20.0688C93.5315 21.0514 93.633 22.0186 93.7139 22.9678C93.8064 24.0403 93.9927 26.2791 93.9927 26.2817L93.9978 26.4024H95.4518L95.4325 26.2547Z" fill="#231815"/>
<path d="M66.3695 24.644C66.3464 25.1963 66.3014 26.2624 66.3014 26.265L66.295 26.4024H67.8004L67.7953 26.2624C67.7953 26.2624 67.7439 25.1937 67.7246 24.644C67.7053 24.1032 67.6925 23.5471 67.6925 22.9819V20.7714C67.6925 20.2075 67.7053 19.6564 67.7246 19.1118C67.7439 18.5698 67.7953 17.4523 67.7953 17.451L67.7978 17.3149H66.295L66.3014 17.451C66.3014 17.451 66.3464 18.5698 66.3695 19.1118C66.3913 19.6564 66.4016 20.2075 66.4016 20.7714V21.0963C65.9932 21.104 65.5975 21.1092 65.2135 21.1156C64.7909 21.1259 64.3542 21.131 63.8995 21.131C63.4499 21.131 63.0081 21.1259 62.5855 21.1156C62.2027 21.1092 61.8071 21.104 61.3987 21.0963V20.7714C61.3987 20.2075 61.4102 19.6564 61.4308 19.1118C61.45 18.5698 61.4988 17.4523 61.4988 17.451L61.5027 17.3149H59.9999L60.0076 17.451C60.0076 17.451 60.0538 18.5698 60.0769 19.1118C60.0949 19.6564 60.1065 20.2075 60.1065 20.7714V22.9819C60.1065 23.5471 60.0949 24.1032 60.0769 24.644C60.0538 25.1963 60.0076 26.2624 60.0076 26.265L59.9973 26.4024H61.5053L61.4988 26.2624C61.4988 26.2624 61.45 25.1937 61.4308 24.644C61.4102 24.1032 61.3987 23.5471 61.3987 22.9819V21.9531C61.8071 21.9466 62.2027 21.9402 62.5855 21.9351C63.0081 21.9325 63.4499 21.9299 63.8995 21.9299C64.3542 21.9299 64.7909 21.9325 65.2135 21.9351C65.5975 21.9402 65.9932 21.9466 66.4016 21.9531V22.9819C66.4016 23.5471 66.3913 24.1032 66.3695 24.644Z" fill="#231815"/>
<path d="M115.951 25.5508C115.938 25.2567 115.928 24.9381 115.921 24.59C115.911 24.2445 115.906 23.89 115.902 23.5316C115.897 23.2259 115.897 22.9434 115.894 22.7995L119.293 17.3149H117.997L115.449 21.8811L112.886 17.3149H111.193L111.319 17.5127C111.326 17.5178 114.326 22.4938 114.604 22.9382C114.604 23.6203 114.598 24.0287 114.588 24.6504C114.583 25.2747 114.501 26.2573 114.501 26.2598L114.492 26.4024H116.006L115.995 26.2598C115.995 26.2598 115.963 25.8424 115.951 25.5508Z" fill="#231815"/>
<path d="M131.623 19.8812C131.387 19.2968 131.052 18.7997 130.624 18.3913C130.195 17.9841 129.681 17.6758 129.086 17.4626C128.489 17.2519 127.838 17.1453 127.129 17.1453C126.43 17.1453 125.779 17.2519 125.184 17.4626C124.592 17.6758 124.074 17.9841 123.647 18.3913C123.218 18.7997 122.882 19.2968 122.647 19.8812C122.408 20.4669 122.29 21.1349 122.29 21.8773C122.29 22.6197 122.408 23.2863 122.647 23.872C122.882 24.4552 123.218 24.9548 123.647 25.3633C124.077 25.7692 124.592 26.0723 125.187 26.2714C125.779 26.4692 126.43 26.5655 127.129 26.5655C127.838 26.5655 128.486 26.4692 129.082 26.2714C129.678 26.0723 130.195 25.7692 130.624 25.3633C131.052 24.9548 131.387 24.4552 131.623 23.872C131.862 23.2863 131.979 22.6171 131.979 21.8773C131.979 21.1374 131.862 20.4669 131.623 19.8812ZM130.485 21.8773C130.485 22.5773 130.4 23.1771 130.232 23.6806C130.057 24.1829 129.82 24.5952 129.522 24.9189C129.217 25.24 128.865 25.4815 128.46 25.6356C128.054 25.7923 127.61 25.8694 127.129 25.8694C126.655 25.8694 126.216 25.7923 125.808 25.6356C125.403 25.4815 125.053 25.24 124.753 24.9189C124.451 24.5952 124.211 24.1829 124.041 23.6806C123.868 23.1771 123.784 22.5773 123.784 21.8773C123.784 21.1772 123.868 20.5761 124.041 20.0778C124.211 19.5704 124.451 19.1594 124.747 18.8357C125.053 18.512 125.403 18.2744 125.808 18.1151C126.216 17.961 126.659 17.8852 127.129 17.8852C127.61 17.8852 128.054 17.961 128.46 18.1151C128.865 18.2744 129.217 18.512 129.522 18.8357C129.82 19.1594 130.057 19.5704 130.232 20.0778C130.4 20.5761 130.485 21.1772 130.485 21.8773Z" fill="#231815"/>
<path d="M143.045 17.3149L143.059 17.4549C143.059 17.4549 143.126 18.1549 143.144 18.81C143.166 19.4689 143.187 20.4066 143.207 21.6242C143.21 21.7886 143.212 21.9659 143.212 22.1573C143.212 22.2639 143.212 22.3756 143.21 22.4912C143.207 22.8046 143.181 23.1116 143.14 23.425C143.093 23.7333 143.016 24.0313 142.91 24.31C142.805 24.5849 142.656 24.8315 142.466 25.0396C142.28 25.2464 142.037 25.4185 141.73 25.547C141.451 25.6716 140.804 25.7435 140.345 25.7422C139.877 25.7422 139.487 25.687 139.179 25.5778C138.866 25.4686 138.61 25.317 138.407 25.1282C138.202 24.9381 138.044 24.7185 137.931 24.4642C137.816 24.2034 137.73 23.9285 137.674 23.6447C137.619 23.3544 137.586 23.059 137.57 22.752C137.557 22.4411 137.547 22.138 137.543 21.849C137.532 21.4084 137.53 20.9859 137.53 20.5761V20.4657C137.53 20.0187 137.535 19.6038 137.547 19.2223C137.559 18.8357 137.567 18.4902 137.579 18.1883C137.592 17.8865 137.619 17.4549 137.619 17.4523L137.625 17.3149H136.136L136.139 17.4459C136.139 17.4523 136.236 22.4026 136.245 22.8046C136.27 24.0814 136.581 25.0396 137.207 25.6561C137.834 26.274 138.81 26.5655 140.114 26.5655C140.711 26.5655 141.477 26.4872 141.952 26.3176C142.416 26.1481 142.81 25.8976 143.126 25.5649C143.442 25.2361 143.684 24.8315 143.848 24.3614C144.006 23.8939 144.09 23.3724 144.09 22.7969V22.7764C144.092 22.3114 144.167 19.0476 144.186 18.6379C144.204 18.2191 144.23 17.4485 144.23 17.4485L144.232 17.3149H143.045Z" fill="#231815"/>
<path d="M80.7137 26.2149C80.7137 26.2149 80.4684 25.7088 80.2988 25.3196C80.1254 24.9266 79.9328 24.477 79.7182 23.9761C79.505 23.4777 79.2764 22.9357 79.0311 22.3538C78.7909 21.7732 78.5455 21.1875 78.3053 20.5928C78.06 20.0058 77.8185 19.4188 77.5861 18.8434C77.3497 18.2628 77.1339 17.7259 76.931 17.2275L76.8963 17.1479H76.4866L76.4506 17.2275C75.7981 18.7625 75.1482 20.2679 74.5021 21.7488C73.856 23.2272 72.5163 26.2149 72.5137 26.2187L72.429 26.4024H73.6595L73.6839 26.3061C73.6839 26.3061 73.9587 25.4185 74.1745 24.8174C74.2978 24.4834 74.4301 24.1354 74.565 23.777C74.7782 23.7731 74.9979 23.7693 75.206 23.7667C75.5862 23.7603 75.9882 23.759 76.3966 23.759C76.809 23.759 77.2058 23.7603 77.5886 23.7667C77.7864 23.7693 77.9945 23.7731 78.2026 23.777L79.1428 26.3087L79.1711 26.4024H80.8113L80.7137 26.2149ZM77.5886 22.9472C77.2058 22.9575 76.809 22.9601 76.3966 22.9601C75.9882 22.9601 75.5913 22.9575 75.206 22.9472C75.1058 22.9447 74.9966 22.9434 74.8938 22.9408L76.3966 19.343L77.5989 22.1521L77.8905 22.9408C77.7903 22.9434 77.6862 22.9447 77.5886 22.9472Z" fill="#231815"/>
<path d="M107.876 26.2149C107.876 26.2149 107.627 25.7088 107.457 25.3196C107.284 24.9266 107.092 24.477 106.879 23.9761C106.665 23.4777 106.435 22.9357 106.192 22.3538C105.949 21.7732 105.706 21.1875 105.465 20.5928C105.218 20.0058 104.979 19.4188 104.744 18.8434C104.509 18.2628 104.294 17.7259 104.091 17.2275L104.055 17.1479H103.644L103.61 17.2275C102.955 18.7625 102.308 20.2679 101.662 21.7488C101.014 23.2272 99.6733 26.2149 99.6733 26.2187L99.5898 26.4024H100.815L100.845 26.3061C100.845 26.3061 101.116 25.4185 101.334 24.8174C101.455 24.4834 101.587 24.1328 101.723 23.777C101.94 23.7731 102.159 23.7693 102.364 23.7667C102.746 23.7603 103.146 23.759 103.555 23.759C103.966 23.759 104.365 23.7603 104.747 23.7667C104.946 23.7693 105.155 23.7731 105.36 23.777L106.302 26.3087L106.331 26.4024H107.971L107.876 26.2149ZM104.747 22.9472C104.365 22.9575 103.966 22.9601 103.555 22.9601C103.146 22.9601 102.746 22.9575 102.364 22.9472C102.263 22.9447 102.154 22.9434 102.052 22.9408L103.558 19.343L104.758 22.1521L105.05 22.9408C104.951 22.9434 104.843 22.9447 104.747 22.9472Z" fill="#231815"/>
<path d="M161.658 26.184C161.658 26.184 161.387 25.8886 161.197 25.6613C161.005 25.4314 160.801 25.1745 160.583 24.8983C160.365 24.6221 160.137 24.3306 159.905 24.0262C159.667 23.723 159.44 23.4302 159.223 23.1527C159.007 22.8727 158.808 22.621 158.633 22.3885C158.525 22.2446 158.429 22.12 158.347 22.016C158.541 21.9749 158.75 21.9145 158.968 21.8362C159.279 21.7244 159.571 21.5677 159.839 21.3686C160.114 21.1657 160.348 20.9088 160.534 20.6018C160.729 20.282 160.823 19.9031 160.823 19.4728C160.823 19.0759 160.752 18.7316 160.602 18.4491C160.453 18.1716 160.248 17.9481 159.991 17.7799C159.738 17.6129 159.445 17.4934 159.113 17.4189C158.781 17.3521 158.437 17.3149 158.077 17.3149C157.83 17.3149 157.584 17.3252 157.349 17.3444C157.115 17.3688 156.88 17.3778 156.643 17.3778C156.399 17.3778 156.163 17.3714 155.931 17.3586C155.696 17.3444 155.457 17.3342 155.216 17.3149L155.071 17.3046L155.078 17.4485C155.103 18.0123 155.124 18.5698 155.148 19.1131C155.168 19.6564 155.178 20.2075 155.178 20.7726V22.9806C155.178 23.5458 155.168 24.0981 155.148 24.644C155.124 25.1937 155.078 26.2598 155.078 26.2624L155.071 26.3998H156.577L156.569 26.2624C156.569 26.2624 156.52 25.1912 156.5 24.644C156.476 24.0981 156.467 23.5458 156.467 22.9806V22.1714H156.764C157.017 22.4424 157.299 22.7712 157.606 23.1553C157.928 23.5625 158.244 23.9709 158.553 24.3781C158.862 24.7943 159.146 25.177 159.4 25.5367C159.656 25.8925 159.974 26.3446 159.974 26.3459L160.013 26.3998H161.861L161.658 26.184ZM156.467 21.3969V20.7726C156.467 20.3102 156.476 19.8491 156.493 19.3893C156.509 18.9616 156.525 18.5325 156.539 18.0971C156.649 18.0843 156.771 18.0753 156.916 18.0676C157.101 18.0522 157.346 18.0496 157.635 18.0496C157.847 18.0496 158.055 18.0701 158.276 18.1138C158.488 18.1575 158.683 18.241 158.862 18.3579C159.039 18.4799 159.18 18.6327 159.293 18.8357C159.4 19.0296 159.459 19.2814 159.459 19.5999C159.459 19.9711 159.385 20.2627 159.244 20.4901C159.099 20.7277 158.917 20.9152 158.699 21.0539C158.478 21.1952 158.235 21.2928 157.968 21.3506C157.695 21.411 157.433 21.4393 157.18 21.4393C157.016 21.4393 156.867 21.4354 156.732 21.4277C156.64 21.4213 156.55 21.411 156.467 21.3969Z" fill="#231815"/>
<path d="M172.056 25.4108C172.056 25.4108 171.57 25.4853 171.276 25.5046C170.975 25.5264 170.653 25.5431 170.314 25.556C169.975 25.5675 169.628 25.5752 169.276 25.5752H168.417C168.412 25.4249 168.406 25.2271 168.401 24.9818C168.401 24.6658 168.395 24.2638 168.395 23.777V22.5054C168.395 22.3705 168.4 22.26 168.401 22.1701C168.404 22.1277 168.406 22.0841 168.406 22.0443C168.558 22.0443 168.742 22.0455 168.96 22.0507C169.244 22.0558 169.546 22.0584 169.871 22.0609C170.188 22.0661 170.512 22.0764 170.831 22.0943C171.147 22.111 171.673 22.1599 171.673 22.1599L171.813 22.1714V21.1066L171.675 21.1169C171.675 21.1169 171.253 21.1516 171.027 21.1618C170.798 21.1772 170.549 21.1888 170.277 21.1991C170.007 21.2132 169.713 21.2248 169.383 21.2299C169.091 21.2402 168.769 21.2453 168.409 21.2479C168.409 21.095 168.406 20.8947 168.401 20.6545C168.401 20.3359 168.395 20.0122 168.395 19.677C168.395 19.3636 168.401 19.0836 168.417 18.837C168.428 18.6263 168.437 18.4067 168.446 18.1742C168.851 18.1768 169.201 18.1832 169.494 18.1986C169.822 18.2089 170.121 18.2217 170.395 18.2397C170.672 18.259 170.932 18.2744 171.18 18.2924C171.427 18.3091 171.998 18.3437 171.998 18.3437L172.135 18.3527V17.3085L172.003 17.3149C172.003 17.3149 171.164 17.3444 170.754 17.3586C170.346 17.3714 169.934 17.3778 169.515 17.3778C169.091 17.3778 168.679 17.3714 168.265 17.3586C167.848 17.3444 167.43 17.3342 167.01 17.3149L166.869 17.3059L166.879 17.4485C166.904 17.9982 166.932 18.5454 166.952 19.0926C166.978 19.641 166.991 20.1934 166.991 20.7585V22.9678C166.991 23.5316 166.978 24.084 166.952 24.6273C166.932 25.1693 166.904 25.7139 166.879 26.2624L166.869 26.4024L167.01 26.3998C167.438 26.3831 167.863 26.3729 168.282 26.3729H170.822C171.236 26.3729 172.07 26.3998 172.072 26.3998L172.205 26.4024V25.389L172.056 25.4108Z" fill="#231815"/>
<path d="M182.916 22.3769C182.681 22.0776 182.398 21.8362 182.051 21.6486C181.721 21.4624 181.361 21.3108 180.979 21.1798C180.602 21.0604 180.254 20.9216 179.936 20.7649C179.622 20.6134 179.359 20.4245 179.152 20.2075C178.959 20.0058 178.861 19.7258 178.861 19.3456C178.861 19.1298 178.899 18.9359 178.98 18.756C179.062 18.5762 179.177 18.4208 179.324 18.2936C179.475 18.1626 179.652 18.0624 179.856 17.9892C180.063 17.9173 180.286 17.88 180.537 17.88C180.783 17.88 180.99 17.9173 181.155 17.9931C181.333 18.0689 181.485 18.1626 181.605 18.2731C181.733 18.3848 181.83 18.5017 181.903 18.6327C181.979 18.7676 182.04 18.8909 182.083 19.0039L182.114 19.0874H182.462L182.907 17.8235L182.818 17.7696C182.818 17.7696 182.235 17.4099 181.874 17.3007C181.534 17.2006 181.135 17.1466 180.677 17.1466C180.2 17.1466 179.766 17.2121 179.378 17.3341C178.989 17.4575 178.656 17.6321 178.376 17.8582C178.095 18.0804 177.882 18.3527 177.732 18.6687C177.583 18.9821 177.508 19.3276 177.508 19.7053C177.508 20.2267 177.624 20.6609 177.865 20.9897C178.094 21.3044 178.379 21.5587 178.721 21.7642C179.057 21.962 179.417 22.1239 179.801 22.2549C180.177 22.3833 180.525 22.5233 180.846 22.6723C181.162 22.8226 181.419 23.0063 181.629 23.2259C181.821 23.4276 181.92 23.7025 181.92 24.0724C181.92 24.3139 181.874 24.5387 181.792 24.7532C181.703 24.9612 181.582 25.1423 181.422 25.2965C181.261 25.4532 181.07 25.5752 180.835 25.6677C180.602 25.7615 180.342 25.8077 180.047 25.8077C179.756 25.8077 179.504 25.7704 179.273 25.6908C179.04 25.6137 178.841 25.5148 178.672 25.3941C178.498 25.2721 178.353 25.1385 178.235 24.9895C178.114 24.8392 178.018 24.6902 177.95 24.5438L177.911 24.4706H177.563L177.252 25.8026L177.331 25.8501C177.331 25.8501 177.874 26.1956 178.256 26.3472C178.635 26.4949 179.123 26.5668 179.71 26.5668C180.263 26.5668 180.762 26.4949 181.201 26.3472C181.64 26.2033 182.014 25.9914 182.323 25.7178C182.632 25.4429 182.867 25.1244 183.03 24.7557C183.19 24.3871 183.27 23.9953 183.27 23.5869C183.273 23.0962 183.155 22.6852 182.916 22.3769Z" fill="#231815"/>
<path d="M196.841 19.8812C196.603 19.2968 196.269 18.7971 195.84 18.3913C195.411 17.9841 194.899 17.6758 194.304 17.4626C193.71 17.2494 193.056 17.1453 192.347 17.1453C191.643 17.1453 190.997 17.2494 190.402 17.4626C189.807 17.6758 189.297 17.9841 188.865 18.3913C188.434 18.7971 188.103 19.2968 187.865 19.8812C187.626 20.4695 187.51 21.1349 187.51 21.8773C187.51 22.6197 187.626 23.2812 187.865 23.872C188.103 24.4552 188.434 24.9548 188.865 25.362C189.297 25.7692 189.81 26.0723 190.405 26.2714C190.999 26.4666 191.645 26.5655 192.347 26.5655C193.056 26.5655 193.707 26.4666 194.302 26.2714C194.894 26.0723 195.411 25.7692 195.84 25.362C196.269 24.9548 196.603 24.4552 196.841 23.872C197.077 23.2812 197.198 22.6197 197.198 21.8773C197.198 21.1349 197.077 20.4669 196.841 19.8812ZM195.706 21.8773C195.706 22.5773 195.62 23.1771 195.447 23.6806C195.278 24.1829 195.038 24.5952 194.738 24.9163C194.438 25.24 194.086 25.4815 193.68 25.6356C193.272 25.7923 192.827 25.8706 192.347 25.8706C191.875 25.8706 191.436 25.7923 191.026 25.6356C190.62 25.4815 190.27 25.24 189.965 24.9163C189.666 24.5952 189.428 24.1829 189.258 23.6806C189.088 23.1771 188.998 22.5773 188.998 21.8773C188.998 21.1772 189.088 20.5735 189.258 20.0752C189.428 19.5678 189.666 19.1568 189.965 18.8357C190.27 18.5094 190.62 18.2718 191.026 18.1138C191.436 17.961 191.875 17.88 192.347 17.88C192.827 17.88 193.272 17.961 193.68 18.1138C194.086 18.2718 194.438 18.5094 194.738 18.8357C195.038 19.1568 195.278 19.5678 195.447 20.0752C195.62 20.5735 195.706 21.1772 195.706 21.8773Z" fill="#231815"/>
<path d="M208.315 26.1841C208.315 26.1841 208.042 25.8886 207.855 25.6626C207.658 25.4314 207.457 25.1758 207.238 24.8983C207.02 24.6222 206.793 24.3306 206.56 24.0262C206.324 23.723 206.098 23.4302 205.879 23.154C205.66 22.874 205.463 22.621 205.29 22.3898C205.181 22.2446 205.083 22.1213 205.002 22.0147C205.199 21.9749 205.405 21.9158 205.626 21.8362C205.935 21.7244 206.226 21.5677 206.497 21.3686C206.772 21.167 207.002 20.9088 207.19 20.6018C207.385 20.282 207.481 19.9031 207.481 19.4728C207.481 19.0746 207.408 18.7316 207.26 18.4491C207.11 18.1729 206.903 17.9494 206.649 17.7799C206.393 17.6129 206.1 17.4934 205.766 17.4202C205.439 17.3521 205.095 17.3162 204.735 17.3162C204.485 17.3162 204.242 17.3252 204.004 17.3444C203.773 17.3701 203.538 17.3778 203.299 17.3778C203.055 17.3778 202.819 17.3714 202.589 17.3598C202.351 17.3444 202.115 17.3342 201.871 17.3162L201.727 17.3059L201.733 17.4485C201.759 18.0162 201.782 18.5698 201.804 19.1106C201.823 19.6552 201.833 20.2075 201.833 20.7726V22.9819C201.833 23.5458 201.823 24.0994 201.804 24.6453C201.782 25.1912 201.733 26.2598 201.733 26.2624L201.727 26.3999H203.232L203.224 26.2624C203.224 26.2624 203.176 25.1912 203.155 24.6453C203.135 24.0994 203.123 23.5458 203.123 22.9819V22.1714H203.417C203.675 22.4437 203.955 22.7725 204.261 23.1553C204.582 23.5612 204.899 23.9684 205.209 24.3794C205.517 24.7943 205.801 25.1783 206.057 25.5367C206.311 25.8925 206.63 26.3446 206.63 26.3472L206.668 26.3999H208.514L208.315 26.1841ZM203.123 20.7726C203.123 20.3115 203.132 19.8491 203.149 19.3906C203.164 18.9628 203.181 18.5326 203.195 18.0997C203.304 18.0868 203.429 18.0753 203.571 18.0689C203.759 18.0535 204.002 18.047 204.291 18.047C204.503 18.047 204.716 18.0702 204.934 18.1151C205.146 18.1575 205.339 18.241 205.52 18.3579C205.694 18.4786 205.836 18.6327 205.951 18.8357C206.058 19.0296 206.115 19.2827 206.115 19.5999C206.115 19.9686 206.04 20.264 205.9 20.4901C205.755 20.729 205.575 20.9152 205.354 21.0552C205.133 21.1952 204.89 21.2929 204.626 21.3507C204.351 21.411 204.089 21.4406 203.841 21.4406C203.674 21.4406 203.522 21.4367 203.388 21.4264C203.295 21.4213 203.205 21.411 203.123 21.3969V20.7726Z" fill="#231815"/>
<path d="M219.241 17.3149C219.241 17.3149 218.068 17.3431 217.541 17.3586C217.011 17.3714 216.472 17.3778 215.92 17.3778C215.363 17.3778 214.825 17.3714 214.297 17.3586C213.768 17.3431 212.579 17.3149 212.579 17.3149L212.449 17.3097V18.3913L212.588 18.3784C212.588 18.3784 213.057 18.3347 213.277 18.3155C213.501 18.3001 213.73 18.2821 213.965 18.2718C214.205 18.2602 214.442 18.2487 214.681 18.2461C214.874 18.2435 215.06 18.241 215.239 18.241C215.262 19.081 215.271 19.9236 215.271 20.7714V22.9806C215.271 23.5458 215.262 24.0981 215.241 24.644C215.22 25.1937 215.173 26.2598 215.173 26.2624L215.167 26.3986H216.672L216.665 26.2624C216.665 26.2624 216.616 25.1937 216.595 24.644C216.575 24.0981 216.564 23.5458 216.564 22.9806V20.7714C216.564 19.9236 216.575 19.081 216.596 18.241C216.776 18.241 216.964 18.2435 217.158 18.2461C217.395 18.2487 217.63 18.2602 217.868 18.2718C218.107 18.2821 218.338 18.3001 218.558 18.3155C218.779 18.3347 219.23 18.3784 219.23 18.3784L219.371 18.3938V17.3085L219.241 17.3149Z" fill="#231815"/>
<path d="M42.5813 17.3932C42.0803 17.3932 41.5974 17.4189 41.1196 17.4652V16.6611C41.1273 14.8308 41.1825 13.897 41.5293 13.2907C41.9044 12.6639 42.2152 12.4224 43.0347 12.2875L43.5549 12.2002C43.5549 12.2002 43.5896 12.091 43.587 12.0178C43.5896 11.933 43.5343 11.8842 43.5279 11.8752H34.2285C34.222 11.8842 34.1668 11.933 34.1668 12.0178C34.1668 12.091 34.1963 12.1951 34.1989 12.2002L34.8861 12.2875C35.7159 12.3852 36.037 12.6292 36.4082 13.2676C36.7511 13.8803 36.8115 14.8308 36.8166 16.6611V18.4221C35.1289 18.9718 33.3126 19.7053 31.1188 20.5427L31.061 20.5671L31.0058 20.5363C29.8523 19.8337 28.6167 19.1722 27.1832 18.6379C24.6336 17.6822 22.1353 17.243 19.8965 17.189V16.6611C19.9042 14.8308 19.962 13.897 20.3075 13.2907C20.6826 12.6639 20.9934 12.4224 21.8129 12.2875L22.3318 12.2002C22.3318 12.2002 22.3691 12.091 22.3691 12.0178C22.3691 11.933 22.3126 11.8842 22.3061 11.8752H13.008C13.0028 11.8842 12.9425 11.933 12.9425 12.0178C12.9425 12.091 12.9771 12.1951 12.9797 12.2002L13.6682 12.2875C14.4915 12.3852 14.8152 12.6292 15.189 13.2676C15.5306 13.8803 15.591 14.8308 15.5961 16.6611V17.6116C14.3759 17.9109 13.3535 18.3527 12.6046 18.8922C11.5283 19.6667 10.9169 20.8561 10.9194 21.7938C10.9194 21.8156 10.9194 21.8349 10.922 21.8567C10.9464 22.797 11.5219 23.6742 12.5725 24.3242C13.3252 24.7853 14.3284 25.1912 15.5961 25.4108C15.591 27.1898 15.5281 28.1249 15.189 28.7299C14.8152 29.3695 14.4915 29.6123 13.6682 29.7112L12.9797 29.7985C12.9771 29.8062 12.9425 29.8807 12.9425 29.9475C12.9425 30.0336 13.0028 30.1145 13.008 30.1248H22.3061C22.3126 30.1145 22.3691 30.0336 22.3691 29.9475C22.3691 29.8782 22.337 29.8011 22.3318 29.796L21.8129 29.7086C20.9934 29.5789 20.6826 29.3323 20.3075 28.708C19.9671 28.112 19.9068 27.1949 19.8965 25.4198C22.0968 25.1038 24.7312 24.3126 27.8396 22.7905C28.8106 22.3217 29.9499 21.7887 30.9287 21.3995L30.9891 21.3751L31.0469 21.4097C33.9562 23.3236 35.527 26.1943 36.2386 27.8359H36.2361C36.2361 27.8359 36.5495 28.5436 36.1783 29.0715C36.1667 29.0908 36.1513 29.1113 36.141 29.1242C36.132 29.1396 36.1192 29.1499 36.1076 29.1601C35.8276 29.4877 35.4924 29.6418 34.8861 29.7112L34.1989 29.7985C34.1963 29.8062 34.1668 29.8807 34.1668 29.9475C34.1668 30.0336 34.222 30.1145 34.2285 30.1248H43.5279C43.5343 30.1145 43.5896 30.0336 43.587 29.9475C43.5896 29.8782 43.5549 29.8011 43.5549 29.796L43.0347 29.7086C42.2152 29.5789 41.9044 29.3323 41.5293 28.708C41.1825 28.1018 41.1273 27.1667 41.1196 25.3376V18.5313C41.3405 18.521 41.5665 18.5133 41.799 18.5094C47.0653 18.4516 48.64 20.1317 49.6111 20.9653C49.7228 20.9473 49.8076 20.8767 49.8539 20.7714C49.8269 20.589 48.491 17.3932 42.5813 17.3932ZM12.7575 21.9402C12.6291 20.9936 13.0542 20.4348 13.7992 19.8042C14.2025 19.4664 14.8242 19.1401 15.5961 18.8639V23.9748C15.0772 23.8566 14.5981 23.7089 14.164 23.5471C13.5025 23.2735 12.8705 22.788 12.7575 21.9402ZM30.0013 21.0591C29.2769 21.3596 27.9179 21.971 27.1306 22.2716C24.3934 23.4739 21.9735 24.0621 19.8965 24.2343V18.0676C20.1007 18.0573 20.3075 18.0509 20.5156 18.0509C22.4217 18.0509 24.5732 18.3977 26.8608 19.2531C27.9218 19.65 29.1369 20.2679 30.018 20.806L30.2531 20.9473L30.0013 21.0591ZM36.8166 25.3376C36.8166 25.4057 36.8166 25.4686 36.8141 25.5354C35.6799 24.1803 34.1039 22.5876 32.059 21.1631L31.8342 21.0064L32.0898 20.9152C33.9895 20.2306 35.4769 19.6886 36.8166 19.2968V25.3376Z" fill="#231815"/>
</g>
</g>
</svg>
