<?xml version="1.0" encoding="UTF-8"?>
<svg id="_レイヤー_1" data-name="レイヤー_1" xmlns="http://www.w3.org/2000/svg" xmlns:xlink="http://www.w3.org/1999/xlink" version="1.1" viewBox="0 0 179.3 31.2">
  <!-- Generator: Adobe Illustrator 29.1.0, SVG Export Plug-In . SVG Version: 2.1.0 Build 142)  -->
  <defs>
    <style>
      .st0 {
        fill: none;
      }

      .st1 {
        clip-path: url(#clippath-1);
      }

      .st2 {
        fill: #fff;
      }

      .st3 {
        clip-path: url(#clippath);
      }
    </style>
    <clipPath id="clippath">
      <rect class="st0" x="0" y="0" width="179.3" height="31.2"/>
    </clipPath>
    <clipPath id="clippath-1">
      <rect class="st0" x="0" y="0" width="179.3" height="31.2"/>
    </clipPath>
  </defs>
  <g id="_アートワーク_6" data-name="アートワーク_6">
    <g class="st3">
      <g class="st1">
        <path class="st2" d="M74.3,19.7s-.2-1.1-.2-1.7c0-.6-.1-1.1-.2-1.7,0-.6-.1-1.2-.2-1.8,0-.6-.1-1.2-.2-1.9h0c0,0-.3,0-.3,0h0c-.2.4-.3.7-.5,1-.2.4-.4.7-.6,1.1-.2.4-.4.7-.6,1.1-.2.4-.4.7-.5,1-.2.3-.3.6-.4.8,0,.1-.1.3-.2.4-.5-.9-.9-1.7-1.4-2.6-.5-.9-.9-1.8-1.4-2.8h0c0,0-.3,0-.3,0h0c0,.6-.1,1.2-.2,1.8,0,.6-.2,1.2-.2,1.8,0,.6-.2,1.2-.3,1.8,0,.6-.3,1.7-.3,1.7h0c0,.1.9.1.9.1h0c0,0,0-.7,0-1.1,0-.4,0-.9.1-1.3,0-.5,0-.9.2-1.4,0-.4,0-.7.1-1,.4.8.8,1.6,1.2,2.3.4.8.8,1.7,1.2,2.5h0c0,0,.2,0,.2,0h0c.4-1,.8-1.8,1.2-2.7.4-.7.8-1.5,1.2-2.3,0,.8.2,1.5.2,2.3,0,.8.2,2.6.2,2.6h0c0,0,1.1,0,1.1,0h0Z"/>
        <path class="st2" d="M51.7,18.4c0,.4,0,1.3,0,1.3h0c0,.1,1.2.1,1.2.1h0c0-.1,0-.9,0-1.4,0-.4,0-.9,0-1.3v-1.7c0-.4,0-.9,0-1.3,0-.4,0-1.3,0-1.3h0c0-.1-1.2-.1-1.2-.1h0c0,.1,0,1,0,1.4,0,.4,0,.9,0,1.3v.3c-.3,0-.6,0-.9,0-.3,0-.7,0-1,0s-.7,0-1,0c-.3,0-.6,0-.9,0v-.3c0-.4,0-.9,0-1.3,0-.4,0-1.3,0-1.3h0c0-.1-1.2-.1-1.2-.1h0c0,.1,0,1,0,1.4,0,.4,0,.9,0,1.3v1.7c0,.4,0,.9,0,1.3,0,.4,0,1.3,0,1.3h0c0,.1,1.2.1,1.2.1h0c0-.1,0-.9,0-1.4,0-.4,0-.9,0-1.3v-.8c.3,0,.6,0,.9,0,.3,0,.7,0,1,0s.7,0,1,0c.3,0,.6,0,.9,0v.8c0,.4,0,.9,0,1.3"/>
        <path class="st2" d="M90.3,19.2c0-.2,0-.5,0-.7,0-.3,0-.5,0-.8,0-.2,0-.5,0-.6l2.6-4.3h-1l-2,3.6-2-3.6h-1.3v.2c.1,0,2.4,3.9,2.7,4.2,0,.5,0,.8,0,1.3,0,.5,0,1.3,0,1.3h0c0,.1,1.2.1,1.2.1h0c0-.1,0-.4,0-.7"/>
        <path class="st2" d="M102.5,14.7c-.2-.5-.4-.8-.8-1.2-.3-.3-.7-.6-1.2-.7-.5-.2-1-.2-1.5-.2s-1.1,0-1.5.2c-.5.2-.9.4-1.2.7-.3.3-.6.7-.8,1.2-.2.5-.3,1-.3,1.6s0,1.1.3,1.6c.2.5.4.8.8,1.2.3.3.7.6,1.2.7.5.2,1,.2,1.5.2s1.1,0,1.5-.2c.5-.2.9-.4,1.2-.7.3-.3.6-.7.8-1.2.2-.5.3-1,.3-1.6s0-1.1-.3-1.6M101.6,16.3c0,.5,0,1-.2,1.4-.1.4-.3.7-.6,1-.2.3-.5.4-.8.6-.3.1-.7.2-1,.2s-.7,0-1-.2c-.3-.1-.6-.3-.8-.6-.2-.3-.4-.6-.6-1-.1-.4-.2-.9-.2-1.4s0-1,.2-1.4c.1-.4.3-.7.5-1,.2-.3.5-.4.8-.6.3-.1.7-.2,1-.2s.7,0,1,.2c.3.1.6.3.8.6.2.3.4.6.6,1,.1.4.2.9.2,1.4"/>
        <path class="st2" d="M111.4,12.7h0c0,.1,0,.7,0,1.2,0,.5,0,1.2,0,2.2,0,.1,0,.3,0,.4s0,.2,0,.3c0,.2,0,.5,0,.7,0,.2,0,.5-.2.7,0,.2-.2.4-.3.6-.1.2-.3.3-.6.4-.2,0-.7.2-1.1.2-.4,0-.7,0-.9-.1-.2,0-.4-.2-.6-.4-.2-.1-.3-.3-.4-.5,0-.2-.2-.4-.2-.6,0-.2,0-.5,0-.7,0-.2,0-.5,0-.7,0-.3,0-.7,0-1h0c0-.4,0-.8,0-1.1,0-.3,0-.6,0-.8,0-.2,0-.6,0-.6h0c0-.1-1.2-.1-1.2-.1h0c0,.1,0,4,0,4.3,0,1,.3,1.7.7,2.2.5.5,1.2.7,2.3.7s1.1,0,1.4-.2c.4-.1.7-.3.9-.6.2-.3.4-.6.6-.9.1-.4.2-.8.2-1.2h0c0-.4,0-2.9,0-3.2,0-.3,0-.9,0-.9h0c0-.1-.9-.1-.9-.1Z"/>
        <path class="st2" d="M62.8,19.7s-.2-.4-.3-.7c-.1-.3-.3-.7-.5-1-.2-.4-.3-.8-.5-1.3-.2-.4-.4-.9-.6-1.4-.2-.5-.4-.9-.6-1.4-.2-.5-.4-.9-.5-1.3h0c0,0-.3,0-.3,0h0c-.5,1.3-1,2.4-1.5,3.6s-1.5,3.5-1.5,3.5h0c0,.1,1,.1,1,.1h0c0,0,.2-.8.4-1.2,0-.3.2-.5.3-.8.2,0,.3,0,.5,0,.3,0,.6,0,.9,0s.6,0,.9,0c.2,0,.3,0,.5,0l.7,2h0c0,0,1.3,0,1.3,0h0ZM60.4,17.1c-.3,0-.6,0-.9,0s-.6,0-.9,0c0,0-.2,0-.2,0l1.2-2.8.9,2.2.2.6c0,0-.2,0-.2,0"/>
        <path class="st2" d="M84,19.7s-.2-.4-.3-.7c-.1-.3-.3-.7-.4-1-.2-.4-.3-.8-.5-1.3-.2-.4-.4-.9-.6-1.4-.2-.5-.4-.9-.6-1.4-.2-.5-.4-.9-.5-1.3h0c0,0-.3,0-.3,0h0c-.5,1.3-1,2.4-1.5,3.6-.5,1.2-1.5,3.5-1.5,3.5h0c0,.1,1,.1,1,.1h0c0,0,.2-.8.4-1.2,0-.3.2-.5.3-.8.2,0,.3,0,.5,0,.3,0,.6,0,.9,0s.6,0,.9,0c.2,0,.3,0,.5,0l.7,2h0c0,0,1.3,0,1.3,0h0ZM81.6,17.1c-.3,0-.6,0-.9,0s-.6,0-.9,0c0,0-.2,0-.2,0l1.2-2.8.9,2.2.2.6c0,0-.2,0-.2,0"/>
        <path class="st2" d="M125.9,19.6s-.2-.2-.4-.4c-.1-.2-.3-.4-.5-.6-.2-.2-.3-.4-.5-.7-.2-.2-.4-.5-.5-.7-.2-.2-.3-.4-.5-.6,0-.1-.2-.2-.2-.3.2,0,.3,0,.5-.1.2,0,.5-.2.7-.4.2-.2.4-.4.5-.6.2-.3.2-.5.2-.9s0-.6-.2-.8c-.1-.2-.3-.4-.5-.5-.2-.1-.4-.2-.7-.3-.3,0-.5,0-.8,0s-.4,0-.6,0c-.2,0-.4,0-.5,0s-.4,0-.6,0c-.2,0-.4,0-.6,0h-.1s0,.1,0,.1c0,.4,0,.9,0,1.3,0,.4,0,.9,0,1.3v1.7c0,.4,0,.9,0,1.3,0,.4,0,1.3,0,1.3h0c0,.1,1.2.1,1.2.1h0c0-.1,0-.9,0-1.4,0-.4,0-.9,0-1.3v-.6h.2c.2.2.4.5.7.8.3.3.5.6.7,1,.2.3.5.6.7.9.2.3.4.6.4.6h0s1.4,0,1.4,0l-.2-.2ZM121.8,15.9v-.5c0-.4,0-.7,0-1.1,0-.3,0-.7,0-1,0,0,.2,0,.3,0,.1,0,.3,0,.6,0s.3,0,.5,0c.2,0,.3,0,.5.2.1,0,.2.2.3.4,0,.2.1.3.1.6s0,.5-.2.7c-.1.2-.3.3-.4.4-.2.1-.4.2-.6.2-.2,0-.4,0-.6,0s-.2,0-.3,0c0,0-.1,0-.2,0"/>
        <path class="st2" d="M134,19s-.4,0-.6,0c-.2,0-.5,0-.7,0-.3,0-.5,0-.8,0h-.7c0-.1,0-.3,0-.5,0-.2,0-.6,0-.9v-1c0-.1,0-.2,0-.3,0,0,0,0,0-.1.1,0,.3,0,.4,0,.2,0,.5,0,.7,0,.2,0,.5,0,.7,0,.2,0,.7,0,.7,0h.1s0-.8,0-.8h-.1s-.3,0-.5,0c-.2,0-.4,0-.6,0-.2,0-.4,0-.7,0-.2,0-.5,0-.8,0,0-.1,0-.3,0-.5,0-.2,0-.5,0-.8s0-.5,0-.7c0-.2,0-.3,0-.5.3,0,.6,0,.8,0,.3,0,.5,0,.7,0,.2,0,.4,0,.6,0,.2,0,.6,0,.6,0h.1s0-.8,0-.8h-.1s-.7,0-1,0c-.3,0-.6,0-1,0s-.7,0-1,0c-.3,0-.6,0-1,0h-.1s0,.1,0,.1c0,.4,0,.9,0,1.3h0c0,.4,0,.9,0,1.3v1.7c0,.4,0,.9,0,1.3,0,.4,0,.8,0,1.3h0c0,.1.1.1.1.1.3,0,.7,0,1,0h2c.3,0,1,0,1,0h.1s0-.8,0-.8h-.1Z"/>
        <path class="st2" d="M142.4,16.7c-.2-.2-.4-.4-.7-.6-.3-.1-.5-.3-.8-.4-.3,0-.6-.2-.8-.3-.2-.1-.4-.3-.6-.4-.2-.2-.2-.4-.2-.7s0-.3,0-.5c0-.1.2-.3.3-.4.1-.1.3-.2.4-.2.2,0,.3,0,.5,0s.4,0,.5,0c.1,0,.3.1.4.2,0,0,.2.2.2.3,0,.1.1.2.1.3h0c0,0,.3,0,.3,0l.3-1h0s-.5-.3-.7-.4c-.3,0-.6-.1-.9-.1s-.7,0-1,.1c-.3,0-.6.2-.8.4-.2.2-.4.4-.5.6-.1.2-.2.5-.2.8s0,.7.3,1c.2.2.4.4.7.6.3.2.5.3.8.4.3,0,.6.2.8.3.2.1.4.3.6.4.1.2.2.4.2.7s0,.4-.1.5c0,.2-.2.3-.3.4-.1.1-.3.2-.5.3-.2,0-.4.1-.6.1s-.4,0-.6,0c-.2,0-.3-.1-.5-.2-.1,0-.2-.2-.3-.3,0-.1-.2-.2-.2-.3h0c0,0-.3,0-.3,0l-.2,1h0s.4.3.7.4c.3.1.7.2,1.1.2s.8,0,1.2-.2c.3-.1.6-.3.9-.5.2-.2.4-.5.6-.7.1-.3.2-.6.2-.9,0-.4,0-.7-.3-.9"/>
        <path class="st2" d="M153.3,14.7c-.2-.5-.4-.8-.8-1.2-.3-.3-.7-.6-1.2-.7-.5-.2-1-.2-1.5-.2s-1.1,0-1.5.2c-.5.2-.9.4-1.2.7-.3.3-.6.7-.8,1.2-.2.5-.3,1-.3,1.6s0,1.1.3,1.6c.2.5.4.8.8,1.2.3.3.7.6,1.2.7.5.2,1,.2,1.5.2s1.1,0,1.5-.2c.5-.2.9-.4,1.2-.7.3-.3.6-.7.8-1.2.2-.5.3-1,.3-1.6s0-1.1-.3-1.6M152.4,16.3c0,.5,0,1-.2,1.4-.1.4-.3.7-.6,1-.2.3-.5.4-.8.6-.3.1-.7.2-1,.2s-.7,0-1-.2c-.3-.1-.6-.3-.8-.6-.2-.2-.4-.6-.6-1-.1-.4-.2-.9-.2-1.4s0-1,.2-1.4c.1-.4.3-.7.6-1,.2-.3.5-.4.8-.6.3-.1.7-.2,1-.2s.7,0,1,.2c.3.1.6.3.8.6.2.3.4.6.6,1,.1.4.2.9.2,1.4"/>
        <path class="st2" d="M162.2,19.6s-.2-.2-.4-.4c-.2-.2-.3-.4-.5-.6-.2-.2-.3-.4-.5-.7-.2-.2-.4-.5-.5-.7-.2-.2-.3-.4-.5-.6,0-.1-.2-.2-.2-.3.2,0,.3,0,.5-.1.2,0,.5-.2.7-.4.2-.2.4-.4.5-.6.2-.2.2-.5.2-.9s0-.6-.2-.8c-.1-.2-.3-.4-.5-.5-.2-.1-.4-.2-.7-.3-.3,0-.5,0-.8,0s-.4,0-.6,0c-.2,0-.4,0-.5,0s-.4,0-.6,0c-.2,0-.4,0-.6,0h-.1s0,.1,0,.1c0,.4,0,.9,0,1.3,0,.4,0,.9,0,1.3v1.7c0,.4,0,.9,0,1.3,0,.4,0,1.3,0,1.3h0c0,.1,1.2.1,1.2.1h0c0-.1,0-.9,0-1.4,0-.4,0-.9,0-1.3v-.6h.2c.2.2.4.5.7.8.2.3.5.6.7,1,.2.3.5.6.7.9.2.3.4.6.4.6h0s1.4,0,1.4,0l-.2-.2ZM158.1,15.4c0-.4,0-.7,0-1.1,0-.3,0-.7,0-1,0,0,.2,0,.3,0,.1,0,.3,0,.6,0s.3,0,.5,0c.2,0,.3,0,.5.2.1,0,.2.2.3.4,0,.2.1.3.1.6s0,.5-.2.7c-.1.2-.3.3-.4.4-.2.1-.4.2-.6.2-.2,0-.4,0-.6,0s-.2,0-.4,0c0,0-.1,0-.2,0v-.5Z"/>
        <path class="st2" d="M170.7,12.7s-.9,0-1.3,0c-.4,0-.8,0-1.3,0s-.9,0-1.3,0c-.4,0-1.3,0-1.3,0h-.1s0,.8,0,.8h.1s.4,0,.5,0c.2,0,.4,0,.5,0,.2,0,.4,0,.6,0,.2,0,.3,0,.4,0,0,.7,0,1.3,0,2v1.7c0,.4,0,.9,0,1.3,0,.4,0,1.3,0,1.3h0c0,.1,1.2.1,1.2.1h0c0-.1,0-.9,0-1.4,0-.4,0-.9,0-1.3v-1.7c0-.7,0-1.3,0-2,.1,0,.3,0,.4,0,.2,0,.4,0,.6,0,.2,0,.4,0,.5,0,.2,0,.5,0,.5,0h.1s0-.8,0-.8h-.1Z"/>
        <path class="st2" d="M33.2,12.8c-.4,0-.8,0-1.1,0v-.6c0-1.4,0-2.2.3-2.6.3-.5.5-.7,1.2-.8h.4c0,0,0-.2,0-.2,0,0,0-.1,0-.1h-7.2s0,0,0,.1,0,.1,0,.1h.5c.6.1.9.3,1.2.8.3.5.3,1.2.3,2.6v1.4c-1.3.4-2.7,1-4.4,1.7h0s0,0,0,0c-.9-.5-1.9-1.1-3-1.5-2-.7-3.9-1.1-5.7-1.1v-.4c0-1.4,0-2.2.3-2.6.3-.5.5-.7,1.2-.8h.4c0,0,0-.2,0-.2s0-.1,0-.1h-7.2s0,0,0,.1,0,.1,0,.1h.5c.6.1.9.3,1.2.8.3.5.3,1.2.3,2.6v.7c-1,.2-1.7.6-2.3,1-.8.6-1.3,1.5-1.3,2.3,0,0,0,0,0,0,0,.7.5,1.4,1.3,1.9.6.4,1.4.7,2.4.8,0,1.4,0,2.1-.3,2.6-.3.5-.5.7-1.2.8h-.5c0,0,0,.1,0,.2s0,.1,0,.1h7.2s0,0,0-.1,0-.1,0-.1h-.4c-.6-.2-.9-.4-1.2-.8-.3-.5-.3-1.2-.3-2.6,1.7-.2,3.8-.9,6.2-2,.8-.4,1.6-.8,2.4-1.1h0s0,0,0,0c2.3,1.5,3.5,3.7,4,5h0s.2.5,0,1c0,0,0,0,0,0,0,0,0,0,0,0-.2.3-.5.4-1,.4h-.5c0,0,0,.1,0,.2s0,.1,0,.1h7.2s0,0,0-.1c0,0,0-.1,0-.1h-.4c-.6-.2-.9-.4-1.2-.8-.3-.5-.3-1.2-.3-2.6v-5.3c.2,0,.3,0,.5,0,4.1,0,5.3,1.3,6.1,1.9,0,0,.2,0,.2-.1,0-.1-1.1-2.6-5.7-2.6M9.9,16.3c0-.7.2-1.2.8-1.7.3-.3.8-.5,1.4-.7v4c-.4,0-.8-.2-1.1-.3-.5-.2-1-.6-1.1-1.3M23.4,15.7c-.6.2-1.6.7-2.2.9-2.1.9-4,1.4-5.6,1.5v-4.8c.2,0,.3,0,.5,0,1.5,0,3.2.3,4.9.9.8.3,1.8.8,2.5,1.2h.2c0,.1-.2.2-.2.2ZM28.7,19c0,0,0,.1,0,.2-.9-1.1-2.1-2.3-3.7-3.4h-.2c0-.1.2-.2.2-.2,1.5-.5,2.6-1,3.7-1.3v4.7Z"/>
      </g>
    </g>
  </g>
</svg>