<svg width="50" height="51" viewBox="0 0 50 51" fill="none" xmlns="http://www.w3.org/2000/svg">
<path d="M24.9999 13.8806C18.6662 13.8806 13.5546 18.9922 13.5546 25.3259C13.5546 31.6596 18.6662 36.7712 24.9999 36.7712C31.3336 36.7712 36.4452 31.6596 36.4452 25.3259C36.4452 18.9922 31.3336 13.8806 24.9999 13.8806ZM24.9999 32.7645C20.9039 32.7645 17.5613 29.4219 17.5613 25.3259C17.5613 21.2299 20.9039 17.8873 24.9999 17.8873C29.0958 17.8873 32.4385 21.2299 32.4385 25.3259C32.4385 29.4219 29.0958 32.7645 24.9999 32.7645ZM36.9139 10.7444C35.4351 10.7444 34.2409 11.9386 34.2409 13.4174C34.2409 14.8962 35.4351 16.0904 36.9139 16.0904C38.3927 16.0904 39.5869 14.9018 39.5869 13.4174C39.5874 13.0662 39.5185 12.7185 39.3844 12.394C39.2502 12.0695 39.0533 11.7746 38.805 11.5263C38.5567 11.278 38.2619 11.0812 37.9374 10.947C37.6129 10.8128 37.2651 10.744 36.9139 10.7444ZM47.3101 25.3259C47.3101 22.2455 47.338 19.1931 47.1651 16.1183C46.9921 12.5469 46.1773 9.37722 43.5657 6.76561C40.9485 4.14842 37.7845 3.33927 34.213 3.16628C31.1327 2.99329 28.0802 3.02119 25.0054 3.02119C21.9251 3.02119 18.8726 2.99329 15.7979 3.16628C12.2264 3.33927 9.05678 4.154 6.44518 6.76561C3.82799 9.3828 3.01884 12.5469 2.84585 16.1183C2.67285 19.1986 2.70076 22.2511 2.70076 25.3259C2.70076 28.4007 2.67285 31.4587 2.84585 34.5335C3.01884 38.1049 3.83357 41.2745 6.44518 43.8861C9.06237 46.5033 12.2264 47.3125 15.7979 47.4855C18.8782 47.6585 21.9307 47.6306 25.0054 47.6306C28.0858 47.6306 31.1383 47.6585 34.213 47.4855C37.7845 47.3125 40.9541 46.4978 43.5657 43.8861C46.1829 41.269 46.9921 38.1049 47.1651 34.5335C47.3436 31.4587 47.3101 28.4062 47.3101 25.3259ZM42.3994 38.4844C41.9921 39.5 41.501 40.2589 40.7142 41.0402C39.9273 41.827 39.174 42.3181 38.1584 42.7254C35.2231 43.8917 28.2532 43.6294 24.9999 43.6294C21.7465 43.6294 14.7711 43.8917 11.8358 42.731C10.8202 42.3236 10.0612 41.8326 9.28 41.0457C8.49317 40.2589 8.0021 39.5056 7.59473 38.4899C6.43402 35.5491 6.69629 28.5792 6.69629 25.3259C6.69629 22.0725 6.43402 15.0971 7.59473 12.1618C8.0021 11.1462 8.49317 10.3873 9.28 9.60601C10.0668 8.82476 10.8202 8.32811 11.8358 7.92074C14.7711 6.76003 21.7465 7.02231 24.9999 7.02231C28.2532 7.02231 35.2287 6.76003 38.1639 7.92074C39.1796 8.32811 39.9385 8.81918 40.7197 9.60601C41.5066 10.3928 41.9976 11.1462 42.405 12.1618C43.5657 15.0971 43.3034 22.0725 43.3034 25.3259C43.3034 28.5792 43.5657 35.5491 42.3994 38.4844Z" fill="white"/>
</svg>
